<?xml version="1.0" encoding="utf-8"?>
<!-- Generator: $$$/GeneralStr/196=Adobe Illustrator 27.6.0, SVG Export Plug-In . SVG Version: 6.00 Build 0)  -->
<svg version="1.1" id="圖層_1" xmlns="http://www.w3.org/2000/svg" xmlns:xlink="http://www.w3.org/1999/xlink" x="0px" y="0px"
	 viewBox="0 0 512 331" style="enable-background:new 0 0 512 331;" xml:space="preserve">
<style type="text/css">
	.st0{clip-path:url(#SVGID_00000129192701729766598280000012863828387100954799_);fill:#FFFFFF;}
</style>
<g>
	<defs>
		<rect id="SVGID_1_" width="512" height="331"/>
	</defs>
	<clipPath id="SVGID_00000068639958830962534260000016726240188675107968_">
		<use xlink:href="#SVGID_1_"  style="overflow:visible;"/>
	</clipPath>
	<path style="clip-path:url(#SVGID_00000068639958830962534260000016726240188675107968_);fill:#FFFFFF;" d="M256,86.7
		c43.5,0,78.8,35.3,78.8,78.8s-35.3,78.8-78.8,78.8s-78.8-35.3-78.8-78.8S212.5,86.7,256,86.7"/>
	<path style="clip-path:url(#SVGID_00000068639958830962534260000016726240188675107968_);fill:#FFFFFF;" d="M504.1,143.7
		C443.6,70.5,351.8,0,256,0C160.1,0,68.4,70.5,7.9,143.7c-10.5,12.7-10.5,31,0,43.7c15.2,18.4,47.1,53.9,89.8,84.9
		c107.3,78.1,209.2,78.3,316.8,0c42.6-31,74.5-66.5,89.8-84.9C514.6,174.7,514.6,156.4,504.1,143.7 M256,55.2
		c60.9,0,110.4,49.5,110.4,110.4c0,60.9-49.5,110.4-110.4,110.4s-110.4-49.5-110.4-110.4C145.6,104.7,195.1,55.2,256,55.2"/>
</g>
</svg>
