<?xml version="1.0" encoding="utf-8"?>
<!-- Generator: $$$/GeneralStr/196=Adobe Illustrator 27.6.0, SVG Export Plug-In . SVG Version: 6.00 Build 0)  -->
<svg version="1.1" id="圖層_1" xmlns="http://www.w3.org/2000/svg" xmlns:xlink="http://www.w3.org/1999/xlink" x="0px" y="0px"
	 viewBox="0 0 24 24" style="enable-background:new 0 0 24 24;" xml:space="preserve">
<style type="text/css">
	.st0{fill:none;}
</style>
<path class="st0" d="M0,0h24v24H0V0z"/>
<path d="M11.1,19.9H6.4c-0.6,0-1-0.5-1-1V4.3c0-0.6,0.5-1,1-1h6.2v3.1c0,1.1,0.9,2.1,2.1,2.1h3.1v4.2c0,0.6,0.5,1,1,1s1-0.5,1-1V7.4
	c0-0.1,0-0.3-0.1-0.4c-0.1-0.1-0.1-0.2-0.2-0.3l-5.2-5.2c-0.1-0.1-0.2-0.2-0.3-0.2c-0.1-0.1-0.3-0.1-0.4-0.1H6.4
	c-1.7,0-3.1,1.4-3.1,3.1v14.6c0,1.7,1.4,3.1,3.1,3.1h4.7c0.6,0,1-0.5,1-1S11.6,19.9,11.1,19.9z M14.7,4.7l1.7,1.7h-1.7V4.7z
	 M21.9,18.4c-0.1-0.1-0.1-0.2-0.2-0.3L18.6,15c-0.4-0.4-1.1-0.4-1.5,0c-0.4,0.4-0.4,1.1,0,1.5l1.3,1.3h-4.8c-0.6,0-1,0.5-1,1
	s0.5,1,1,1h4.8l-1.3,1.3c-0.4,0.4-0.4,1.1,0,1.5c0.2,0.2,0.5,0.3,0.7,0.3s0.5-0.1,0.7-0.3l3.1-3.1c0.1-0.1,0.2-0.2,0.2-0.3
	c0-0.1,0.1-0.3,0.1-0.4c0,0,0,0,0,0C22,18.7,22,18.6,21.9,18.4z"/>
</svg>
