<?xml version="1.0" encoding="utf-8"?>
<!-- Generator: $$$/GeneralStr/196=Adobe Illustrator 27.6.0, SVG Export Plug-In . SVG Version: 6.00 Build 0)  -->
<svg version="1.1" id="圖層_1" xmlns="http://www.w3.org/2000/svg" xmlns:xlink="http://www.w3.org/1999/xlink" x="0px" y="0px"
	 viewBox="0 0 24 24" style="enable-background:new 0 0 24 24;" xml:space="preserve">
<path d="M7.7,6.7c-0.6,0-1.1,0.5-1.1,1.1s0.5,1.1,1.1,1.1h1.1c0.6,0,1.1-0.5,1.1-1.1S9.3,6.7,8.7,6.7H7.7z M22.4,20.8l-1.2-1.2
	c0.8-1.4,0.6-3.2-0.6-4.4l0,0c-1.4-1.5-3.8-1.5-5.3-0.1c-0.7,0.7-1.2,1.7-1.1,2.8c0,2,1.6,3.7,3.7,3.7c0.6,0,1.3-0.2,1.8-0.5
	l1.2,1.2c0.4,0.4,1.1,0.4,1.5,0c0,0,0,0,0,0C22.8,21.9,22.8,21.3,22.4,20.8C22.4,20.9,22.4,20.9,22.4,20.8z M19,19
	c-0.6,0.6-1.6,0.6-2.3,0c-0.3-0.3-0.5-0.7-0.5-1.1c0-0.4,0.2-0.8,0.5-1.1c0.3-0.3,0.7-0.4,1.1-0.5c0.9-0.1,1.6,0.6,1.7,1.5
	c0,0,0,0.1,0,0.1C19.5,18.3,19.3,18.7,19,19z M14.1,11H7.7c-0.6,0-1.1,0.5-1.1,1.1c0,0.6,0.5,1.1,1.1,1.1h6.4c0.6,0,1.1-0.5,1.1-1.1
	C15.1,11.5,14.7,11,14.1,11z M11.9,17.4c0.6,0,1.1-0.5,1.1-1.1c0-0.6-0.5-1.1-1.1-1.1H7.7c-0.6,0-1.1,0.5-1.1,1.1
	c0,0.6,0.5,1.1,1.1,1.1H11.9z M11.1,19.9H6.4c-0.6,0-1-0.5-1-1V4.3c0-0.6,0.5-1,1-1h6.2v3.1c0,1.1,0.9,2.1,2.1,2.1h3.1v4.2
	c0,0.6,0.5,1,1,1s1-0.5,1-1V7.4c0-0.1,0-0.3-0.1-0.4c-0.1-0.1-0.1-0.2-0.2-0.3l-5.2-5.2c-0.1-0.1-0.2-0.2-0.3-0.2
	c-0.1-0.1-0.3-0.1-0.4-0.1H6.4c-1.7,0-3.1,1.4-3.1,3.1v14.6c0,1.7,1.4,3.1,3.1,3.1h4.7c0.6,0,1-0.5,1-1S11.6,19.9,11.1,19.9z
	 M14.7,4.7l1.7,1.7h-1.7V4.7z"/>
</svg>
